<?xml version="1.0" encoding="utf-8"?>
<!-- Generator: Adobe Illustrator 22.0.0, SVG Export Plug-In . SVG Version: 6.00 Build 0)  -->
<svg version="1.1" xmlns="http://www.w3.org/2000/svg" xmlns:xlink="http://www.w3.org/1999/xlink" x="0px" y="0px"
	 viewBox="0 0 16 16" style="enable-background:new 0 0 16 16;" xml:space="preserve">
<style type="text/css">
	.st0{display:none;}
	.st1{display:inline;}
	.st2{fill:#A7C3D4;}
	.st3{fill:#FC9654;}
	.st4{fill:#F25508;}
	.st5{fill:#B2440D;}
	.st6{fill:none;}
	.st7{fill:#121F26;}
</style>
<g id="Layer_1" class="st0">
	<g class="st1">
		<path class="st2" d="M2-234.1c-44.5,0-86.1,12.1-121.9,33c31.9-16.8,68.3-26.4,106.9-26.4c127,0,229.9,102.9,229.9,229.9
			c0,127-102.9,229.9-229.9,229.9c-91.9,0-171.2-54-208-132c36.4,87.3,122.5,148.6,223,148.6c133.4,0,241.6-108.1,241.6-241.6
			S135.4-234.1,2-234.1z"/>
		<g>
			<path class="st3" d="M-150.8-41.5c18.1-15.4,37.7-24.8,59-29.7c33.8-7.7,66-0.4,97.8,13.2C34-46,62.3-34.8,90.8-24.3
				c17.1,6.3,34.8,9.3,53,7.8c25.2-2.1,44.1-15.2,56.5-41.8c-2.9,19.7-13.1,32.1-27.2,40.6C153.3-5.7,132-3,110-5.1
				C70.4-8.7,34-25.9-2.7-41.5C-27.3-51.9-52.6-59-79-58.8c-22.9,0.2-44.5,7.4-65.8,16.1c-1.6,0.6-3.1,1.2-4.7,1.8
				C-149.7-40.9-149.9-41.1-150.8-41.5z"/>
			<path class="st4" d="M124.9,26.3c-11.6,8.6-24.7,12-38,14.9C50.8,49,17,38.8-15.8,22.5c-24.1-12-49-20.1-75-22.4
				c-30-2.6-59.5,1.5-87.9,13.8c-1.1,0.5-2.1,0.8-3.3,0.8c12.7-8.6,26-15.3,40-20.5c16.3-6,33-9.6,50.1-10.1
				C-69-16.6-47.3-9.7-26.1-0.2c24,10.8,47.7,22.8,72.9,29.5C73.1,36.3,99.2,37.4,124.9,26.3z"/>
			<path class="st5" d="M43.4,70.8C33.5,78.1,22.3,81.1,11,83.5c-30.9,6.6-59.7-2.1-87.7-16c-20.5-10.2-41.8-17.2-64-19.1
				c-25.6-2.3-50.8,1.3-75,11.7c-0.9,0.4-1.8,0.7-2.8,0.7c10.8-7.4,22.2-13.1,34.1-17.5c13.9-5.2,28.2-8.2,42.7-8.6
				c19.6-0.5,38.1,5.4,56.2,13.5c20.5,9.2,40.7,19.4,62.2,25.2C-0.9,79.4,21.4,80.3,43.4,70.8z"/>
		</g>
	</g>
</g>
<g id="Layer_3">
	<rect y="0" class="st6" width="16" height="16"/>
</g>
<g id="Layer_2">
	<g>
		<circle class="st2" cx="8.5" cy="7.5" r="7.5"/>
		<circle class="st7" cx="7.1" cy="7.4" r="7.1"/>
		<g>
			<path class="st3" d="M2.6,6c0.5-0.5,1.1-0.8,1.7-0.9c1-0.2,1.9,0,2.8,0.4c0.8,0.4,1.6,0.7,2.4,1c0.5,0.2,1,0.3,1.5,0.2
				c0.7-0.1,1.3-0.5,1.6-1.3c-0.1,0.6-0.4,1-0.8,1.3c-0.6,0.4-1.2,0.5-1.8,0.4C8.9,7,7.9,6.5,6.8,6C6.1,5.7,5.4,5.5,4.6,5.5
				C4,5.5,3.4,5.7,2.7,6C2.7,6,2.6,6,2.6,6C2.6,6,2.6,6,2.6,6z"/>
			<path class="st4" d="M10.5,8.1c-0.3,0.3-0.7,0.4-1.1,0.5c-1,0.2-2-0.1-3-0.6C5.8,7.6,5,7.4,4.3,7.3c-0.9-0.1-1.7,0-2.5,0.4
				c0,0-0.1,0-0.1,0C2,7.5,2.4,7.3,2.8,7.1c0.5-0.2,1-0.3,1.4-0.3c0.7,0,1.3,0.2,1.9,0.5C6.9,7.6,7.5,8,8.3,8.2
				C9,8.4,9.8,8.4,10.5,8.1z"/>
			<path class="st5" d="M8.2,9.5C7.9,9.7,7.6,9.8,7.2,9.9c-0.9,0.2-1.7-0.1-2.5-0.5C4.1,9,3.5,8.8,2.9,8.8c-0.7-0.1-1.5,0-2.2,0.4
				c0,0-0.1,0-0.1,0c0.3-0.2,0.6-0.4,1-0.5C2,8.5,2.4,8.4,2.8,8.4c0.6,0,1.1,0.2,1.6,0.4C5,9.1,5.6,9.4,6.2,9.5
				C6.9,9.7,7.5,9.8,8.2,9.5z"/>
		</g>
	</g>
</g>
</svg>
